# xmcd
#
# Track frame offsets: 
#        150
#        13015
#        30721
#        48383
#        83420
#        101285
#        114847
#        131889
#        148322
#        164004
#        178808
#        193098
#        216600
#        242648
#
# Disc length: 3488 seconds
#
# Revision: 0
# Processed by: cddbd v1.5.2PL0 Copyright (c) Steve Scherf et al.
# Submitted via: ExactAudioCopy v0.99pb4
#
DISCID=c90d9e0e
DTITLE=Various Artist - Australian Roots Groove
DYEAR=2009
DGENRE=Blues
TTITLE0=Here She Comes Again
TTITLE1=Danny Boy (Live)
TTITLE2=You Gotta Go
TTITLE3=Technological Advances (Live)
TTITLE4=Shake Them Bones
TTITLE5=Better Off Dead
TTITLE6=Sweet Lips
TTITLE7=Not A Word Wasted
TTITLE8=Devil's Got A Hold
TTITLE9=Hold My Hand (Live)
TTITLE10=Can't Take It
TTITLE11=Parking Lots (Acoustic)
TTITLE12=Atlanta
TTITLE13=Swimming In The Daekness
EXTD=
EXTT0=
EXTT1=
EXTT2=
EXTT3=
EXTT4=
EXTT5=
EXTT6=
EXTT7=
EXTT8=
EXTT9=
EXTT10=
EXTT11=
EXTT12=
EXTT13=
PLAYORDER=
